<mxfile host="app.diagrams.net" modified="2024-03-25T11:23:22.592Z" agent="Mozilla/5.0 (Windows NT 10.0; Win64; x64; rv:124.0) Gecko/20100101 Firefox/124.0" version="24.1.0" etag="XqgqfD4_tE4JoK5j53vE" type="github">
  <diagram name="第 1 页" id="jV1YTC150RhrFMLJDcWB">
    <mxGraphModel>
      <root>
        <mxCell id="0" />
        <mxCell id="1" parent="0" />
      </root>
    </mxGraphModel>
  </diagram>
</mxfile>
